<?xml version="1.0" encoding="utf-8"?>

<!DOCTYPE svg PUBLIC "-//W3C//DTD SVG 1.0//EN"
"http://www.w3.org/TR/2001/REC-SVG-20010904/DTD/svg10.dtd">

<svg xmlns="http://www.w3.org/2000/svg">
<g>
  <path fill="none"
  stroke="black" d="
  M 10 10
  Q 100 190
    250 100
  L 370 105
  L 370 380
  L 180 240
  L 10 380
  L 10 10"
  style="stroke:red; stroke-width:4; fill:none;"/>
</g>

<g transform="rotate(-20 50 100) translate(400 200)">
<path fill="none"
  stroke="black" d="
  M 10 10
  Q 100 190
    250 100
  L 370 105
  L 370 380
  L 180 240
  L 10 380
  L 10 10"
  style="stroke:red; stroke-width:4; fill:none;"/>
</g>

<g transform="scale(0.5 0.5) translate(200 800)">
<path fill="none"
  stroke="black" d="
  M 10 10
  Q 100 190
    250 100
  L 370 105
  L 370 380
  L 180 240
  L 10 380
  L 10 10"
  style="stroke:red; stroke-width:4; fill:none;"/>
</g>

<g transform="skewX(-30) translate(700 400)">
<path fill="none"
  stroke="black" d="
  M 10 10
  Q 100 190
    250 100
  L 370 105
  L 370 380
  L 180 240
  L 10 380
  L 10 10"
  style="stroke:red; stroke-width:4; fill:none;"/>
</g>

</svg>
